<?xml version="1.0" encoding="UTF-8" standalone="no"?>
<svg width="48px" height="40px" viewBox="0 0 48 40" version="1.1" xmlns="http://www.w3.org/2000/svg" xmlns:xlink="http://www.w3.org/1999/xlink" xmlns:sketch="http://www.bohemiancoding.com/sketch/ns">
    <!-- Generator: Sketch 3.0.2 (7799) - http://www.bohemiancoding.com/sketch -->
    <title>sad</title>
    <description>Created with Sketch.</description>
    <defs></defs>
    <g id="Page-1" stroke="none" stroke-width="1" fill="none" fill-rule="evenodd" sketch:type="MSPage">
        <g id="sad" sketch:type="MSLayerGroup">
            <g id="Group" sketch:type="MSShapeGroup">
                <path d="M6.23,8.21 C7.528,8.947 8.813,12.784 8.813,12.784 C8.813,12.784 4.861,13.647 3.562,12.91 C2.264,12.173 1.809,10.523 2.546,9.226 C3.283,7.928 4.934,7.473 6.23,8.21 L6.23,8.21 Z" id="Shape" fill="#FFFFFF"></path>
                <path d="M39.711,6.562 C39.123,7.934 36.404,10.045 36.404,10.045 C36.404,10.045 36.056,6.62 36.642,5.248 C37.23,3.876 38.394,3.058 39.242,3.421 C40.088,3.784 40.299,5.19 39.711,6.562 L39.711,6.562 Z" id="Shape" fill="#FFFFFF"></path>
                <path d="M45.32,11.673 C43.769,12.204 40.049,11.546 40.049,11.546 C40.049,11.546 42.58,8.739 44.129,8.206 C45.68,7.674 47.203,8.018 47.531,8.977 C47.861,9.933 46.871,11.141 45.32,11.673 L45.32,11.673 Z" id="Shape" fill="#FFFFFF"></path>
                <path d="M18.743,10.13 C18.743,10.099 18.712,7.087 17.134,5.61 C16.523,5.039 15.752,4.824 14.774,4.884 L14.632,2.63 C16.249,2.53 17.617,2.872 18.695,3.885 C20.99,6.042 21.018,10 21.018,10 L18.744,10 L19.881,10 L18.743,10.13 L18.743,10.13 Z" id="Shape" fill="#FFFFFF"></path>
                <path d="M21.656,9.208 C21.608,9.02 20.506,4.578 22.858,1.982 C24.206,0.495 26.31,-0.042 29.117,0.392 L28.771,2.639 C26.769,2.333 25.349,2.623 24.546,3.506 C23.274,4.904 23.618,7.691 23.859,8.647 L21.656,9.208 L21.656,9.208 Z" id="Shape" fill="#FFFFFF"></path>
                <g transform="translate(0.000000, 9.000000)" id="Shape">
                    <path d="M17.188,13.933 L21.519,12.357 C22.434,12.024 22.907,11.013 22.574,10.097 C22.241,9.182 21.229,8.711 20.313,9.043 L15.98,10.62 C15.066,10.953 14.595,11.965 14.928,12.88 C15.26,13.794 16.272,14.267 17.188,13.933 L17.188,13.933 Z"></path>
                    <path d="M32.02,10.62 L27.686,9.043 C26.772,8.71 25.76,9.182 25.426,10.097 C25.094,11.012 25.567,12.024 26.481,12.357 L30.813,13.933 C31.729,14.267 32.741,13.794 33.073,12.88 C33.406,11.964 32.934,10.953 32.02,10.62 L32.02,10.62 Z"></path>
                    <path d="M42.461,10.183 C41.936,10.183 41.43,10.261 40.949,10.398 C38.299,4.486 31.713,-0.301 24,-0.301 C16.289,-0.301 9.703,4.486 7.053,10.398 C6.571,10.261 6.066,10.183 5.54,10.183 C2.479,10.183 0,12.663 0,15.722 C0,18.781 2.479,21.261 5.54,21.261 C6.015,21.261 6.476,21.194 6.914,21.081 C9.473,26.727 16.157,30.754 24,30.754 C31.844,30.754 38.527,26.727 41.084,21.081 C41.525,21.193 41.986,21.261 42.461,21.261 C45.52,21.261 48,18.781 48,15.722 C48,12.663 45.52,10.183 42.461,10.183 L42.461,10.183 Z M14.929,12.88 C14.596,11.965 15.067,10.953 15.981,10.62 L20.313,9.043 C21.229,8.71 22.241,9.182 22.574,10.097 C22.907,11.013 22.434,12.024 21.519,12.357 L17.188,13.933 C16.272,14.267 15.26,13.794 14.929,12.88 L14.929,12.88 Z M23.717,23.516 C18.029,23.482 15.791,27.891 15.726,23.931 C15.726,19.362 19.43,15.658 24,15.658 C28.57,15.658 32.273,19.362 32.273,23.931 C31.953,27.685 29.457,23.378 23.717,23.516 L23.717,23.516 Z M33.072,12.88 C32.74,13.794 31.728,14.267 30.812,13.933 L26.48,12.357 C25.566,12.024 25.093,11.012 25.425,10.097 C25.759,9.182 26.771,8.711 27.685,9.043 L32.019,10.62 C32.934,10.953 33.406,11.964 33.072,12.88 L33.072,12.88 Z" fill="#FFFFFF"></path>
                </g>
            </g>
        </g>
    </g>
</svg>